<!DOCTYPE svg PUBLIC "-//W3C//DTD SVG 1.1//EN" "http://www.w3.org/Graphics/SVG/1.1/DTD/svg11.dtd">
<!-- Uploaded to: SVG Repo, www.svgrepo.com, Transformed by: SVG Repo Mixer Tools -->
<svg width="800px" height="800px" viewBox="-51.2 -51.2 614.40 614.40" xmlns="http://www.w3.org/2000/svg" fill="#" stroke="#">
<g id="SVGRepo_bgCarrier" stroke-width="0">
<path transform="translate(-51.2, -51.2), scale(38.4)" fill="#87CEEB" d="M9.166.33a2.25 2.25 0 00-2.332 0l-5.25 3.182A2.25 2.25 0 00.5 5.436v5.128a2.25 2.25 0 001.084 1.924l5.25 3.182a2.25 2.25 0 002.332 0l5.25-3.182a2.25 2.25 0 001.084-1.924V5.436a2.25 2.25 0 00-1.084-1.924L9.166.33z" strokewidth="0"/>
</g>
<g id="SVGRepo_tracerCarrier" stroke-linecap="round" stroke-linejoin="round"/>
<g id="SVGRepo_iconCarrier">
<path fill="#fff" d="M329.8 235.69l62.83-82.71 42.86 32.56-62.83 82.75zm-12.86-9.53l66.81-88-45-34.15-66.81 88zm-27.48-97.78l-19.3 39.57 57-75-42.51-32.3-36.24 47.71zm-20.74-73.24l-46.64-35.43-42 55.31 53.67 26.17zm107 235.52l-139-102.71-9.92.91 4.56 2 62.16 138.43-16.52 2.25-57.68-128.5-40-17.7-4-30.84 39.41 19.42 36.36-3.33 17-34.83-110.9-54.09-80.68 112.51L177.6 346.67l-22.7 145.62H341V372.62l35.29-48.93L387 275.77z"/>
</g>
</svg>